<mxfile modified="2023-03-15T21:58:25.819Z" host="Electron" agent="5.0 (Windows NT 10.0; Win64; x64) AppleWebKit/537.36 (KHTML, like Gecko) draw.io/20.3.0 Chrome/104.0.5112.114 Electron/20.1.3 Safari/537.36" etag="XQS8x7uS6-bGxz-x0HcG" compressed="false" version="20.3.0" type="device">
  <diagram name="Maintainance Specialist Functionality" id="L82_7UWOB-eD7X1Nhyzg">
    <mxGraphModel dx="782" dy="517" grid="1" gridSize="10" guides="1" tooltips="1" connect="1" arrows="1" fold="1" page="1" pageScale="1" pageWidth="827" pageHeight="1169" math="0" shadow="0">
      <root>
        <mxCell id="U6dDKni8suYvyQFleUj0-0" />
        <mxCell id="U6dDKni8suYvyQFleUj0-1" parent="U6dDKni8suYvyQFleUj0-0" />
        <mxCell id="U6dDKni8suYvyQFleUj0-4" value="Base System Logical Module" style="rounded=1;whiteSpace=wrap;html=1;strokeWidth=1;fillColor=none;dashed=1;absoluteArcSize=1;arcSize=8;container=1;collapsible=0;recursiveResize=0;align=left;verticalAlign=top;" parent="U6dDKni8suYvyQFleUj0-1" vertex="1">
          <mxGeometry x="120" y="130" width="430" height="510" as="geometry" />
        </mxCell>
        <mxCell id="U6dDKni8suYvyQFleUj0-5" value="" style="fontStyle=1;align=center;verticalAlign=top;childLayout=stackLayout;horizontal=1;horizontalStack=0;resizeParent=1;resizeParentMax=0;resizeLast=0;marginBottom=0;strokeColor=#d6b656;strokeWidth=2;fillColor=none;" parent="U6dDKni8suYvyQFleUj0-4" vertex="1">
          <mxGeometry x="10" y="90" width="130" height="53" as="geometry" />
        </mxCell>
        <mxCell id="U6dDKni8suYvyQFleUj0-6" value="Diagnostic &lt;br&gt;Logging" style="html=1;align=left;spacingLeft=4;verticalAlign=middle;strokeColor=none;fillColor=none;fontStyle=1" parent="U6dDKni8suYvyQFleUj0-5" vertex="1">
          <mxGeometry width="130" height="20" as="geometry" />
        </mxCell>
        <mxCell id="U6dDKni8suYvyQFleUj0-7" value="" style="shape=ellipse;" parent="U6dDKni8suYvyQFleUj0-6" vertex="1">
          <mxGeometry x="1" width="20" height="16" relative="1" as="geometry">
            <mxPoint x="-25" y="7" as="offset" />
          </mxGeometry>
        </mxCell>
        <mxCell id="U6dDKni8suYvyQFleUj0-8" value="" style="line;strokeWidth=1;fillColor=none;align=left;verticalAlign=middle;spacingTop=-1;spacingLeft=3;spacingRight=3;rotatable=0;labelPosition=right;points=[];portConstraint=eastwest;" parent="U6dDKni8suYvyQFleUj0-5" vertex="1">
          <mxGeometry y="20" width="130" height="8" as="geometry" />
        </mxCell>
        <mxCell id="U6dDKni8suYvyQFleUj0-9" value="." style="html=1;align=center;spacingLeft=4;verticalAlign=top;strokeColor=none;fillColor=none;" parent="U6dDKni8suYvyQFleUj0-5" vertex="1">
          <mxGeometry y="28" width="130" height="25" as="geometry" />
        </mxCell>
        <mxCell id="U6dDKni8suYvyQFleUj0-10" value="&amp;lt;&amp;lt;actor&amp;gt;&amp;gt;&lt;br&gt;&lt;br&gt;&lt;b&gt;User&lt;/b&gt;" style="text;html=1;align=center;verticalAlign=middle;dashed=0;strokeColor=#000000;strokeWidth=2;" parent="U6dDKni8suYvyQFleUj0-4" vertex="1">
          <mxGeometry x="170" y="210" width="80" height="50" as="geometry" />
        </mxCell>
        <mxCell id="U6dDKni8suYvyQFleUj0-11" value="" style="fontStyle=1;align=center;verticalAlign=top;childLayout=stackLayout;horizontal=1;horizontalStack=0;resizeParent=1;resizeParentMax=0;resizeLast=0;marginBottom=0;strokeColor=#d6b656;strokeWidth=2;fillColor=none;" parent="U6dDKni8suYvyQFleUj0-4" vertex="1">
          <mxGeometry x="10" y="150" width="130" height="53" as="geometry" />
        </mxCell>
        <mxCell id="U6dDKni8suYvyQFleUj0-12" value="Error &lt;br&gt;Logging" style="html=1;align=left;spacingLeft=4;verticalAlign=middle;strokeColor=none;fillColor=none;fontStyle=1" parent="U6dDKni8suYvyQFleUj0-11" vertex="1">
          <mxGeometry width="130" height="20" as="geometry" />
        </mxCell>
        <mxCell id="U6dDKni8suYvyQFleUj0-13" value="" style="shape=ellipse;" parent="U6dDKni8suYvyQFleUj0-12" vertex="1">
          <mxGeometry x="1" width="20" height="16" relative="1" as="geometry">
            <mxPoint x="-25" y="7" as="offset" />
          </mxGeometry>
        </mxCell>
        <mxCell id="U6dDKni8suYvyQFleUj0-14" value="" style="line;strokeWidth=1;fillColor=none;align=left;verticalAlign=middle;spacingTop=-1;spacingLeft=3;spacingRight=3;rotatable=0;labelPosition=right;points=[];portConstraint=eastwest;" parent="U6dDKni8suYvyQFleUj0-11" vertex="1">
          <mxGeometry y="20" width="130" height="8" as="geometry" />
        </mxCell>
        <mxCell id="U6dDKni8suYvyQFleUj0-15" value="." style="html=1;align=center;spacingLeft=4;verticalAlign=top;strokeColor=none;fillColor=none;" parent="U6dDKni8suYvyQFleUj0-11" vertex="1">
          <mxGeometry y="28" width="130" height="25" as="geometry" />
        </mxCell>
        <mxCell id="U6dDKni8suYvyQFleUj0-16" value="" style="fontStyle=1;align=center;verticalAlign=top;childLayout=stackLayout;horizontal=1;horizontalStack=0;resizeParent=1;resizeParentMax=0;resizeLast=0;marginBottom=0;strokeColor=#d6b656;strokeWidth=2;fillColor=none;" parent="U6dDKni8suYvyQFleUj0-4" vertex="1">
          <mxGeometry x="10" y="270" width="130" height="53" as="geometry" />
        </mxCell>
        <mxCell id="U6dDKni8suYvyQFleUj0-17" value="Sessions" style="html=1;align=left;spacingLeft=4;verticalAlign=middle;strokeColor=none;fillColor=none;fontStyle=1" parent="U6dDKni8suYvyQFleUj0-16" vertex="1">
          <mxGeometry width="130" height="20" as="geometry" />
        </mxCell>
        <mxCell id="U6dDKni8suYvyQFleUj0-18" value="" style="shape=ellipse;" parent="U6dDKni8suYvyQFleUj0-17" vertex="1">
          <mxGeometry x="1" width="20" height="16" relative="1" as="geometry">
            <mxPoint x="-25" y="7" as="offset" />
          </mxGeometry>
        </mxCell>
        <mxCell id="U6dDKni8suYvyQFleUj0-19" value="" style="line;strokeWidth=1;fillColor=none;align=left;verticalAlign=middle;spacingTop=-1;spacingLeft=3;spacingRight=3;rotatable=0;labelPosition=right;points=[];portConstraint=eastwest;" parent="U6dDKni8suYvyQFleUj0-16" vertex="1">
          <mxGeometry y="20" width="130" height="8" as="geometry" />
        </mxCell>
        <mxCell id="U6dDKni8suYvyQFleUj0-20" value="." style="html=1;align=center;spacingLeft=4;verticalAlign=top;strokeColor=none;fillColor=none;" parent="U6dDKni8suYvyQFleUj0-16" vertex="1">
          <mxGeometry y="28" width="130" height="25" as="geometry" />
        </mxCell>
        <mxCell id="U6dDKni8suYvyQFleUj0-21" value="" style="fontStyle=1;align=center;verticalAlign=top;childLayout=stackLayout;horizontal=1;horizontalStack=0;resizeParent=1;resizeParentMax=0;resizeLast=0;marginBottom=0;strokeColor=#d6b656;strokeWidth=2;fillColor=none;" parent="U6dDKni8suYvyQFleUj0-4" vertex="1">
          <mxGeometry x="10" y="210" width="130" height="53" as="geometry" />
        </mxCell>
        <mxCell id="U6dDKni8suYvyQFleUj0-22" value="System Config" style="html=1;align=left;spacingLeft=4;verticalAlign=middle;strokeColor=none;fillColor=none;fontStyle=1" parent="U6dDKni8suYvyQFleUj0-21" vertex="1">
          <mxGeometry width="130" height="20" as="geometry" />
        </mxCell>
        <mxCell id="U6dDKni8suYvyQFleUj0-23" value="" style="shape=ellipse;" parent="U6dDKni8suYvyQFleUj0-22" vertex="1">
          <mxGeometry x="1" width="20" height="16" relative="1" as="geometry">
            <mxPoint x="-25" y="7" as="offset" />
          </mxGeometry>
        </mxCell>
        <mxCell id="U6dDKni8suYvyQFleUj0-24" value="" style="line;strokeWidth=1;fillColor=none;align=left;verticalAlign=middle;spacingTop=-1;spacingLeft=3;spacingRight=3;rotatable=0;labelPosition=right;points=[];portConstraint=eastwest;" parent="U6dDKni8suYvyQFleUj0-21" vertex="1">
          <mxGeometry y="20" width="130" height="8" as="geometry" />
        </mxCell>
        <mxCell id="U6dDKni8suYvyQFleUj0-25" value="." style="html=1;align=center;spacingLeft=4;verticalAlign=top;strokeColor=none;fillColor=none;" parent="U6dDKni8suYvyQFleUj0-21" vertex="1">
          <mxGeometry y="28" width="130" height="25" as="geometry" />
        </mxCell>
        <mxCell id="U6dDKni8suYvyQFleUj0-26" value="" style="fontStyle=1;align=center;verticalAlign=top;childLayout=stackLayout;horizontal=1;horizontalStack=0;resizeParent=1;resizeParentMax=0;resizeLast=0;marginBottom=0;strokeColor=#d6b656;strokeWidth=2;fillColor=none;" parent="U6dDKni8suYvyQFleUj0-4" vertex="1">
          <mxGeometry x="290" y="390" width="130" height="53" as="geometry" />
        </mxCell>
        <mxCell id="U6dDKni8suYvyQFleUj0-27" value="Sys Sponsor Info" style="html=1;align=left;spacingLeft=4;verticalAlign=middle;strokeColor=none;fillColor=none;fontStyle=1" parent="U6dDKni8suYvyQFleUj0-26" vertex="1">
          <mxGeometry width="130" height="20" as="geometry" />
        </mxCell>
        <mxCell id="U6dDKni8suYvyQFleUj0-28" value="" style="shape=ellipse;" parent="U6dDKni8suYvyQFleUj0-27" vertex="1">
          <mxGeometry x="1" width="20" height="16" relative="1" as="geometry">
            <mxPoint x="-25" y="7" as="offset" />
          </mxGeometry>
        </mxCell>
        <mxCell id="U6dDKni8suYvyQFleUj0-29" value="" style="line;strokeWidth=1;fillColor=none;align=left;verticalAlign=middle;spacingTop=-1;spacingLeft=3;spacingRight=3;rotatable=0;labelPosition=right;points=[];portConstraint=eastwest;" parent="U6dDKni8suYvyQFleUj0-26" vertex="1">
          <mxGeometry y="20" width="130" height="8" as="geometry" />
        </mxCell>
        <mxCell id="U6dDKni8suYvyQFleUj0-30" value="." style="html=1;align=center;spacingLeft=4;verticalAlign=top;strokeColor=none;fillColor=none;" parent="U6dDKni8suYvyQFleUj0-26" vertex="1">
          <mxGeometry y="28" width="130" height="25" as="geometry" />
        </mxCell>
        <mxCell id="U6dDKni8suYvyQFleUj0-31" value="" style="fontStyle=1;align=center;verticalAlign=top;childLayout=stackLayout;horizontal=1;horizontalStack=0;resizeParent=1;resizeParentMax=0;resizeLast=0;marginBottom=0;strokeColor=#d6b656;strokeWidth=2;fillColor=none;" parent="U6dDKni8suYvyQFleUj0-4" vertex="1">
          <mxGeometry x="10" y="30" width="130" height="53" as="geometry" />
        </mxCell>
        <mxCell id="U6dDKni8suYvyQFleUj0-32" value="Env Configuration" style="html=1;align=left;spacingLeft=4;verticalAlign=middle;strokeColor=none;fillColor=none;fontStyle=1" parent="U6dDKni8suYvyQFleUj0-31" vertex="1">
          <mxGeometry width="130" height="20" as="geometry" />
        </mxCell>
        <mxCell id="U6dDKni8suYvyQFleUj0-33" value="" style="shape=ellipse;" parent="U6dDKni8suYvyQFleUj0-32" vertex="1">
          <mxGeometry x="1" width="20" height="16" relative="1" as="geometry">
            <mxPoint x="-25" y="7" as="offset" />
          </mxGeometry>
        </mxCell>
        <mxCell id="U6dDKni8suYvyQFleUj0-34" value="" style="line;strokeWidth=1;fillColor=none;align=left;verticalAlign=middle;spacingTop=-1;spacingLeft=3;spacingRight=3;rotatable=0;labelPosition=right;points=[];portConstraint=eastwest;" parent="U6dDKni8suYvyQFleUj0-31" vertex="1">
          <mxGeometry y="20" width="130" height="8" as="geometry" />
        </mxCell>
        <mxCell id="U6dDKni8suYvyQFleUj0-35" value="." style="html=1;align=center;spacingLeft=4;verticalAlign=top;strokeColor=none;fillColor=none;" parent="U6dDKni8suYvyQFleUj0-31" vertex="1">
          <mxGeometry y="28" width="130" height="25" as="geometry" />
        </mxCell>
        <mxCell id="U6dDKni8suYvyQFleUj0-36" value="" style="fontStyle=1;align=center;verticalAlign=top;childLayout=stackLayout;horizontal=1;horizontalStack=0;resizeParent=1;resizeParentMax=0;resizeLast=0;marginBottom=0;strokeColor=#d6b656;strokeWidth=2;fillColor=none;" parent="U6dDKni8suYvyQFleUj0-4" vertex="1">
          <mxGeometry x="290" y="450" width="130" height="53" as="geometry" />
        </mxCell>
        <mxCell id="U6dDKni8suYvyQFleUj0-37" value="Svc Provider Info" style="html=1;align=left;spacingLeft=4;verticalAlign=middle;strokeColor=none;fillColor=none;fontStyle=1" parent="U6dDKni8suYvyQFleUj0-36" vertex="1">
          <mxGeometry width="130" height="20" as="geometry" />
        </mxCell>
        <mxCell id="U6dDKni8suYvyQFleUj0-38" value="" style="shape=ellipse;" parent="U6dDKni8suYvyQFleUj0-37" vertex="1">
          <mxGeometry x="1" width="20" height="16" relative="1" as="geometry">
            <mxPoint x="-25" y="7" as="offset" />
          </mxGeometry>
        </mxCell>
        <mxCell id="U6dDKni8suYvyQFleUj0-39" value="" style="line;strokeWidth=1;fillColor=none;align=left;verticalAlign=middle;spacingTop=-1;spacingLeft=3;spacingRight=3;rotatable=0;labelPosition=right;points=[];portConstraint=eastwest;" parent="U6dDKni8suYvyQFleUj0-36" vertex="1">
          <mxGeometry y="20" width="130" height="8" as="geometry" />
        </mxCell>
        <mxCell id="U6dDKni8suYvyQFleUj0-40" value="." style="html=1;align=center;spacingLeft=4;verticalAlign=top;strokeColor=none;fillColor=none;" parent="U6dDKni8suYvyQFleUj0-36" vertex="1">
          <mxGeometry y="28" width="130" height="25" as="geometry" />
        </mxCell>
        <mxCell id="U6dDKni8suYvyQFleUj0-41" value="" style="fontStyle=1;align=center;verticalAlign=top;childLayout=stackLayout;horizontal=1;horizontalStack=0;resizeParent=1;resizeParentMax=0;resizeLast=0;marginBottom=0;strokeColor=#d6b656;strokeWidth=2;fillColor=none;" parent="U6dDKni8suYvyQFleUj0-4" vertex="1">
          <mxGeometry x="10" y="330" width="130" height="53" as="geometry" />
        </mxCell>
        <mxCell id="U6dDKni8suYvyQFleUj0-42" value="Session&lt;br&gt;Operation Auditing" style="html=1;align=left;spacingLeft=4;verticalAlign=middle;strokeColor=none;fillColor=none;fontStyle=1" parent="U6dDKni8suYvyQFleUj0-41" vertex="1">
          <mxGeometry width="130" height="20" as="geometry" />
        </mxCell>
        <mxCell id="U6dDKni8suYvyQFleUj0-43" value="" style="shape=ellipse;" parent="U6dDKni8suYvyQFleUj0-42" vertex="1">
          <mxGeometry x="1" width="20" height="16" relative="1" as="geometry">
            <mxPoint x="-25" y="7" as="offset" />
          </mxGeometry>
        </mxCell>
        <mxCell id="U6dDKni8suYvyQFleUj0-44" value="" style="line;strokeWidth=1;fillColor=none;align=left;verticalAlign=middle;spacingTop=-1;spacingLeft=3;spacingRight=3;rotatable=0;labelPosition=right;points=[];portConstraint=eastwest;" parent="U6dDKni8suYvyQFleUj0-41" vertex="1">
          <mxGeometry y="20" width="130" height="8" as="geometry" />
        </mxCell>
        <mxCell id="U6dDKni8suYvyQFleUj0-45" value="." style="html=1;align=center;spacingLeft=4;verticalAlign=top;strokeColor=none;fillColor=none;" parent="U6dDKni8suYvyQFleUj0-41" vertex="1">
          <mxGeometry y="28" width="130" height="25" as="geometry" />
        </mxCell>
        <mxCell id="U6dDKni8suYvyQFleUj0-46" value="" style="fontStyle=1;align=center;verticalAlign=top;childLayout=stackLayout;horizontal=1;horizontalStack=0;resizeParent=1;resizeParentMax=0;resizeLast=0;marginBottom=0;strokeColor=#d6b656;strokeWidth=2;fillColor=none;" parent="U6dDKni8suYvyQFleUj0-4" vertex="1">
          <mxGeometry x="150" y="90" width="130" height="53" as="geometry" />
        </mxCell>
        <mxCell id="U6dDKni8suYvyQFleUj0-47" value="User Mgmt" style="html=1;align=left;spacingLeft=4;verticalAlign=middle;strokeColor=none;fillColor=none;fontStyle=1" parent="U6dDKni8suYvyQFleUj0-46" vertex="1">
          <mxGeometry width="130" height="20" as="geometry" />
        </mxCell>
        <mxCell id="U6dDKni8suYvyQFleUj0-48" value="" style="shape=ellipse;" parent="U6dDKni8suYvyQFleUj0-47" vertex="1">
          <mxGeometry x="1" width="20" height="16" relative="1" as="geometry">
            <mxPoint x="-25" y="7" as="offset" />
          </mxGeometry>
        </mxCell>
        <mxCell id="U6dDKni8suYvyQFleUj0-49" value="" style="line;strokeWidth=1;fillColor=none;align=left;verticalAlign=middle;spacingTop=-1;spacingLeft=3;spacingRight=3;rotatable=0;labelPosition=right;points=[];portConstraint=eastwest;" parent="U6dDKni8suYvyQFleUj0-46" vertex="1">
          <mxGeometry y="20" width="130" height="8" as="geometry" />
        </mxCell>
        <mxCell id="U6dDKni8suYvyQFleUj0-50" value="." style="html=1;align=center;spacingLeft=4;verticalAlign=top;strokeColor=none;fillColor=none;" parent="U6dDKni8suYvyQFleUj0-46" vertex="1">
          <mxGeometry y="28" width="130" height="25" as="geometry" />
        </mxCell>
        <mxCell id="U6dDKni8suYvyQFleUj0-51" value="" style="fontStyle=1;align=center;verticalAlign=top;childLayout=stackLayout;horizontal=1;horizontalStack=0;resizeParent=1;resizeParentMax=0;resizeLast=0;marginBottom=0;strokeColor=#d6b656;strokeWidth=2;fillColor=none;" parent="U6dDKni8suYvyQFleUj0-4" vertex="1">
          <mxGeometry x="150" y="150" width="130" height="53" as="geometry" />
        </mxCell>
        <mxCell id="U6dDKni8suYvyQFleUj0-52" value="Group Mgmt" style="html=1;align=left;spacingLeft=4;verticalAlign=middle;strokeColor=none;fillColor=none;fontStyle=1" parent="U6dDKni8suYvyQFleUj0-51" vertex="1">
          <mxGeometry width="130" height="20" as="geometry" />
        </mxCell>
        <mxCell id="U6dDKni8suYvyQFleUj0-53" value="" style="shape=ellipse;" parent="U6dDKni8suYvyQFleUj0-52" vertex="1">
          <mxGeometry x="1" width="20" height="16" relative="1" as="geometry">
            <mxPoint x="-25" y="7" as="offset" />
          </mxGeometry>
        </mxCell>
        <mxCell id="U6dDKni8suYvyQFleUj0-54" value="" style="line;strokeWidth=1;fillColor=none;align=left;verticalAlign=middle;spacingTop=-1;spacingLeft=3;spacingRight=3;rotatable=0;labelPosition=right;points=[];portConstraint=eastwest;" parent="U6dDKni8suYvyQFleUj0-51" vertex="1">
          <mxGeometry y="20" width="130" height="8" as="geometry" />
        </mxCell>
        <mxCell id="U6dDKni8suYvyQFleUj0-55" value="." style="html=1;align=center;spacingLeft=4;verticalAlign=top;strokeColor=none;fillColor=none;" parent="U6dDKni8suYvyQFleUj0-51" vertex="1">
          <mxGeometry y="28" width="130" height="25" as="geometry" />
        </mxCell>
        <mxCell id="U6dDKni8suYvyQFleUj0-56" value="" style="fontStyle=1;align=center;verticalAlign=top;childLayout=stackLayout;horizontal=1;horizontalStack=0;resizeParent=1;resizeParentMax=0;resizeLast=0;marginBottom=0;strokeColor=#d6b656;strokeWidth=2;fillColor=none;" parent="U6dDKni8suYvyQFleUj0-4" vertex="1">
          <mxGeometry x="150" y="270" width="130" height="53" as="geometry" />
        </mxCell>
        <mxCell id="U6dDKni8suYvyQFleUj0-57" value="Statement/Agreement&lt;br&gt;&amp;nbsp;Mgmt" style="html=1;align=left;spacingLeft=4;verticalAlign=middle;strokeColor=none;fillColor=none;fontStyle=1" parent="U6dDKni8suYvyQFleUj0-56" vertex="1">
          <mxGeometry width="130" height="20" as="geometry" />
        </mxCell>
        <mxCell id="U6dDKni8suYvyQFleUj0-58" value="" style="shape=ellipse;" parent="U6dDKni8suYvyQFleUj0-57" vertex="1">
          <mxGeometry x="1" width="20" height="16" relative="1" as="geometry">
            <mxPoint x="-25" y="7" as="offset" />
          </mxGeometry>
        </mxCell>
        <mxCell id="U6dDKni8suYvyQFleUj0-59" value="" style="line;strokeWidth=1;fillColor=none;align=left;verticalAlign=middle;spacingTop=-1;spacingLeft=3;spacingRight=3;rotatable=0;labelPosition=right;points=[];portConstraint=eastwest;" parent="U6dDKni8suYvyQFleUj0-56" vertex="1">
          <mxGeometry y="20" width="130" height="8" as="geometry" />
        </mxCell>
        <mxCell id="U6dDKni8suYvyQFleUj0-60" value="." style="html=1;align=center;spacingLeft=4;verticalAlign=top;strokeColor=none;fillColor=none;" parent="U6dDKni8suYvyQFleUj0-56" vertex="1">
          <mxGeometry y="28" width="130" height="25" as="geometry" />
        </mxCell>
        <mxCell id="U6dDKni8suYvyQFleUj0-81" value="" style="fontStyle=1;align=center;verticalAlign=top;childLayout=stackLayout;horizontal=1;horizontalStack=0;resizeParent=1;resizeParentMax=0;resizeLast=0;marginBottom=0;strokeColor=#d6b656;strokeWidth=2;fillColor=none;" parent="U6dDKni8suYvyQFleUj0-4" vertex="1">
          <mxGeometry x="10" y="390" width="130" height="53" as="geometry" />
        </mxCell>
        <mxCell id="U6dDKni8suYvyQFleUj0-82" value="Country of Origin/&lt;br&gt;Embargo Mgmt" style="html=1;align=left;spacingLeft=4;verticalAlign=middle;strokeColor=none;fillColor=none;fontStyle=1" parent="U6dDKni8suYvyQFleUj0-81" vertex="1">
          <mxGeometry width="130" height="20" as="geometry" />
        </mxCell>
        <mxCell id="U6dDKni8suYvyQFleUj0-83" value="" style="shape=ellipse;" parent="U6dDKni8suYvyQFleUj0-82" vertex="1">
          <mxGeometry x="1" width="20" height="16" relative="1" as="geometry">
            <mxPoint x="-25" y="7" as="offset" />
          </mxGeometry>
        </mxCell>
        <mxCell id="U6dDKni8suYvyQFleUj0-84" value="" style="line;strokeWidth=1;fillColor=none;align=left;verticalAlign=middle;spacingTop=-1;spacingLeft=3;spacingRight=3;rotatable=0;labelPosition=right;points=[];portConstraint=eastwest;" parent="U6dDKni8suYvyQFleUj0-81" vertex="1">
          <mxGeometry y="20" width="130" height="8" as="geometry" />
        </mxCell>
        <mxCell id="U6dDKni8suYvyQFleUj0-85" value="." style="html=1;align=center;spacingLeft=4;verticalAlign=top;strokeColor=none;fillColor=none;" parent="U6dDKni8suYvyQFleUj0-81" vertex="1">
          <mxGeometry y="28" width="130" height="25" as="geometry" />
        </mxCell>
        <mxCell id="U6dDKni8suYvyQFleUj0-86" value="" style="fontStyle=1;align=center;verticalAlign=top;childLayout=stackLayout;horizontal=1;horizontalStack=0;resizeParent=1;resizeParentMax=0;resizeLast=0;marginBottom=0;strokeColor=#d6b656;strokeWidth=2;fillColor=none;" parent="U6dDKni8suYvyQFleUj0-4" vertex="1">
          <mxGeometry x="150" y="450" width="130" height="53" as="geometry" />
        </mxCell>
        <mxCell id="U6dDKni8suYvyQFleUj0-87" value="Module &lt;br&gt;Permission Mgmt" style="html=1;align=left;spacingLeft=4;verticalAlign=middle;strokeColor=none;fillColor=none;fontStyle=1" parent="U6dDKni8suYvyQFleUj0-86" vertex="1">
          <mxGeometry width="130" height="20" as="geometry" />
        </mxCell>
        <mxCell id="U6dDKni8suYvyQFleUj0-88" value="" style="shape=ellipse;" parent="U6dDKni8suYvyQFleUj0-87" vertex="1">
          <mxGeometry x="1" width="20" height="16" relative="1" as="geometry">
            <mxPoint x="-25" y="7" as="offset" />
          </mxGeometry>
        </mxCell>
        <mxCell id="U6dDKni8suYvyQFleUj0-89" value="" style="line;strokeWidth=1;fillColor=none;align=left;verticalAlign=middle;spacingTop=-1;spacingLeft=3;spacingRight=3;rotatable=0;labelPosition=right;points=[];portConstraint=eastwest;" parent="U6dDKni8suYvyQFleUj0-86" vertex="1">
          <mxGeometry y="20" width="130" height="8" as="geometry" />
        </mxCell>
        <mxCell id="U6dDKni8suYvyQFleUj0-90" value="." style="html=1;align=center;spacingLeft=4;verticalAlign=top;strokeColor=none;fillColor=none;" parent="U6dDKni8suYvyQFleUj0-86" vertex="1">
          <mxGeometry y="28" width="130" height="25" as="geometry" />
        </mxCell>
        <mxCell id="U6dDKni8suYvyQFleUj0-91" value="" style="fontStyle=1;align=center;verticalAlign=top;childLayout=stackLayout;horizontal=1;horizontalStack=0;resizeParent=1;resizeParentMax=0;resizeLast=0;marginBottom=0;strokeColor=#d6b656;strokeWidth=2;fillColor=none;" parent="U6dDKni8suYvyQFleUj0-4" vertex="1">
          <mxGeometry x="10" y="450" width="130" height="53" as="geometry" />
        </mxCell>
        <mxCell id="U6dDKni8suYvyQFleUj0-92" value="Functionality&lt;br&gt;Module Mgmt" style="html=1;align=left;spacingLeft=4;verticalAlign=middle;strokeColor=none;fillColor=none;fontStyle=1" parent="U6dDKni8suYvyQFleUj0-91" vertex="1">
          <mxGeometry width="130" height="20" as="geometry" />
        </mxCell>
        <mxCell id="U6dDKni8suYvyQFleUj0-93" value="" style="shape=ellipse;" parent="U6dDKni8suYvyQFleUj0-92" vertex="1">
          <mxGeometry x="1" width="20" height="16" relative="1" as="geometry">
            <mxPoint x="-25" y="7" as="offset" />
          </mxGeometry>
        </mxCell>
        <mxCell id="U6dDKni8suYvyQFleUj0-94" value="" style="line;strokeWidth=1;fillColor=none;align=left;verticalAlign=middle;spacingTop=-1;spacingLeft=3;spacingRight=3;rotatable=0;labelPosition=right;points=[];portConstraint=eastwest;" parent="U6dDKni8suYvyQFleUj0-91" vertex="1">
          <mxGeometry y="20" width="130" height="8" as="geometry" />
        </mxCell>
        <mxCell id="U6dDKni8suYvyQFleUj0-95" value="." style="html=1;align=center;spacingLeft=4;verticalAlign=top;strokeColor=none;fillColor=none;" parent="U6dDKni8suYvyQFleUj0-91" vertex="1">
          <mxGeometry y="28" width="130" height="25" as="geometry" />
        </mxCell>
        <mxCell id="U6dDKni8suYvyQFleUj0-96" value="" style="fontStyle=1;align=center;verticalAlign=top;childLayout=stackLayout;horizontal=1;horizontalStack=0;resizeParent=1;resizeParentMax=0;resizeLast=0;marginBottom=0;strokeColor=#d6b656;strokeWidth=2;fillColor=none;" parent="U6dDKni8suYvyQFleUj0-4" vertex="1">
          <mxGeometry x="150" y="390" width="130" height="53" as="geometry" />
        </mxCell>
        <mxCell id="U6dDKni8suYvyQFleUj0-97" value="Group Role &amp;amp; &lt;br&gt;Permissions Mgmt" style="html=1;align=left;spacingLeft=4;verticalAlign=middle;strokeColor=none;fillColor=none;fontStyle=1" parent="U6dDKni8suYvyQFleUj0-96" vertex="1">
          <mxGeometry width="130" height="20" as="geometry" />
        </mxCell>
        <mxCell id="U6dDKni8suYvyQFleUj0-98" value="" style="shape=ellipse;" parent="U6dDKni8suYvyQFleUj0-97" vertex="1">
          <mxGeometry x="1" width="20" height="16" relative="1" as="geometry">
            <mxPoint x="-25" y="7" as="offset" />
          </mxGeometry>
        </mxCell>
        <mxCell id="U6dDKni8suYvyQFleUj0-99" value="" style="line;strokeWidth=1;fillColor=none;align=left;verticalAlign=middle;spacingTop=-1;spacingLeft=3;spacingRight=3;rotatable=0;labelPosition=right;points=[];portConstraint=eastwest;" parent="U6dDKni8suYvyQFleUj0-96" vertex="1">
          <mxGeometry y="20" width="130" height="8" as="geometry" />
        </mxCell>
        <mxCell id="U6dDKni8suYvyQFleUj0-100" value="." style="html=1;align=center;spacingLeft=4;verticalAlign=top;strokeColor=none;fillColor=none;" parent="U6dDKni8suYvyQFleUj0-96" vertex="1">
          <mxGeometry y="28" width="130" height="25" as="geometry" />
        </mxCell>
        <mxCell id="U6dDKni8suYvyQFleUj0-101" value="" style="fontStyle=1;align=center;verticalAlign=top;childLayout=stackLayout;horizontal=1;horizontalStack=0;resizeParent=1;resizeParentMax=0;resizeLast=0;marginBottom=0;strokeColor=#d6b656;strokeWidth=2;fillColor=none;" parent="U6dDKni8suYvyQFleUj0-4" vertex="1">
          <mxGeometry x="290" y="270" width="130" height="53" as="geometry" />
        </mxCell>
        <mxCell id="U6dDKni8suYvyQFleUj0-102" value="Media/Metadata&lt;br&gt;&amp;nbsp;Mgmt" style="html=1;align=left;spacingLeft=4;verticalAlign=middle;strokeColor=none;fillColor=none;fontStyle=1" parent="U6dDKni8suYvyQFleUj0-101" vertex="1">
          <mxGeometry width="130" height="20" as="geometry" />
        </mxCell>
        <mxCell id="U6dDKni8suYvyQFleUj0-103" value="" style="shape=ellipse;" parent="U6dDKni8suYvyQFleUj0-102" vertex="1">
          <mxGeometry x="1" width="20" height="16" relative="1" as="geometry">
            <mxPoint x="-25" y="7" as="offset" />
          </mxGeometry>
        </mxCell>
        <mxCell id="U6dDKni8suYvyQFleUj0-104" value="" style="line;strokeWidth=1;fillColor=none;align=left;verticalAlign=middle;spacingTop=-1;spacingLeft=3;spacingRight=3;rotatable=0;labelPosition=right;points=[];portConstraint=eastwest;" parent="U6dDKni8suYvyQFleUj0-101" vertex="1">
          <mxGeometry y="20" width="130" height="8" as="geometry" />
        </mxCell>
        <mxCell id="U6dDKni8suYvyQFleUj0-105" value="." style="html=1;align=center;spacingLeft=4;verticalAlign=top;strokeColor=none;fillColor=none;" parent="U6dDKni8suYvyQFleUj0-101" vertex="1">
          <mxGeometry y="28" width="130" height="25" as="geometry" />
        </mxCell>
        <mxCell id="U6dDKni8suYvyQFleUj0-106" value="" style="fontStyle=1;align=center;verticalAlign=top;childLayout=stackLayout;horizontal=1;horizontalStack=0;resizeParent=1;resizeParentMax=0;resizeLast=0;marginBottom=0;strokeColor=#d6b656;strokeWidth=2;fillColor=none;" parent="U6dDKni8suYvyQFleUj0-4" vertex="1">
          <mxGeometry x="290" y="330" width="130" height="53" as="geometry" />
        </mxCell>
        <mxCell id="U6dDKni8suYvyQFleUj0-107" value="Search" style="html=1;align=left;spacingLeft=4;verticalAlign=middle;strokeColor=none;fillColor=none;fontStyle=1" parent="U6dDKni8suYvyQFleUj0-106" vertex="1">
          <mxGeometry width="130" height="20" as="geometry" />
        </mxCell>
        <mxCell id="U6dDKni8suYvyQFleUj0-108" value="" style="shape=ellipse;" parent="U6dDKni8suYvyQFleUj0-107" vertex="1">
          <mxGeometry x="1" width="20" height="16" relative="1" as="geometry">
            <mxPoint x="-25" y="7" as="offset" />
          </mxGeometry>
        </mxCell>
        <mxCell id="U6dDKni8suYvyQFleUj0-109" value="" style="line;strokeWidth=1;fillColor=none;align=left;verticalAlign=middle;spacingTop=-1;spacingLeft=3;spacingRight=3;rotatable=0;labelPosition=right;points=[];portConstraint=eastwest;" parent="U6dDKni8suYvyQFleUj0-106" vertex="1">
          <mxGeometry y="20" width="130" height="8" as="geometry" />
        </mxCell>
        <mxCell id="U6dDKni8suYvyQFleUj0-110" value="." style="html=1;align=center;spacingLeft=4;verticalAlign=top;strokeColor=none;fillColor=none;" parent="U6dDKni8suYvyQFleUj0-106" vertex="1">
          <mxGeometry y="28" width="130" height="25" as="geometry" />
        </mxCell>
        <mxCell id="U6dDKni8suYvyQFleUj0-111" value="" style="fontStyle=1;align=center;verticalAlign=top;childLayout=stackLayout;horizontal=1;horizontalStack=0;resizeParent=1;resizeParentMax=0;resizeLast=0;marginBottom=0;strokeColor=#d6b656;strokeWidth=2;fillColor=none;" parent="U6dDKni8suYvyQFleUj0-4" vertex="1">
          <mxGeometry x="150" y="330" width="130" height="53" as="geometry" />
        </mxCell>
        <mxCell id="U6dDKni8suYvyQFleUj0-112" value="Notification Mgmt" style="html=1;align=left;spacingLeft=4;verticalAlign=middle;strokeColor=none;fillColor=none;fontStyle=1" parent="U6dDKni8suYvyQFleUj0-111" vertex="1">
          <mxGeometry width="130" height="20" as="geometry" />
        </mxCell>
        <mxCell id="U6dDKni8suYvyQFleUj0-113" value="" style="shape=ellipse;" parent="U6dDKni8suYvyQFleUj0-112" vertex="1">
          <mxGeometry x="1" width="20" height="16" relative="1" as="geometry">
            <mxPoint x="-25" y="7" as="offset" />
          </mxGeometry>
        </mxCell>
        <mxCell id="U6dDKni8suYvyQFleUj0-114" value="" style="line;strokeWidth=1;fillColor=none;align=left;verticalAlign=middle;spacingTop=-1;spacingLeft=3;spacingRight=3;rotatable=0;labelPosition=right;points=[];portConstraint=eastwest;" parent="U6dDKni8suYvyQFleUj0-111" vertex="1">
          <mxGeometry y="20" width="130" height="8" as="geometry" />
        </mxCell>
        <mxCell id="U6dDKni8suYvyQFleUj0-115" value="." style="html=1;align=center;spacingLeft=4;verticalAlign=top;strokeColor=none;fillColor=none;" parent="U6dDKni8suYvyQFleUj0-111" vertex="1">
          <mxGeometry y="28" width="130" height="25" as="geometry" />
        </mxCell>
        <mxCell id="U6dDKni8suYvyQFleUj0-116" value="" style="fontStyle=1;align=center;verticalAlign=top;childLayout=stackLayout;horizontal=1;horizontalStack=0;resizeParent=1;resizeParentMax=0;resizeLast=0;marginBottom=0;strokeColor=#d6b656;strokeWidth=2;fillColor=none;" parent="U6dDKni8suYvyQFleUj0-1" vertex="1">
          <mxGeometry x="270" y="160" width="130" height="53" as="geometry" />
        </mxCell>
        <mxCell id="U6dDKni8suYvyQFleUj0-117" value="Metrics &amp;amp; Alert Mgmt" style="html=1;align=left;spacingLeft=4;verticalAlign=middle;strokeColor=none;fillColor=none;fontStyle=1" parent="U6dDKni8suYvyQFleUj0-116" vertex="1">
          <mxGeometry width="130" height="20" as="geometry" />
        </mxCell>
        <mxCell id="U6dDKni8suYvyQFleUj0-118" value="" style="shape=ellipse;" parent="U6dDKni8suYvyQFleUj0-117" vertex="1">
          <mxGeometry x="1" width="20" height="16" relative="1" as="geometry">
            <mxPoint x="-25" y="7" as="offset" />
          </mxGeometry>
        </mxCell>
        <mxCell id="U6dDKni8suYvyQFleUj0-119" value="" style="line;strokeWidth=1;fillColor=none;align=left;verticalAlign=middle;spacingTop=-1;spacingLeft=3;spacingRight=3;rotatable=0;labelPosition=right;points=[];portConstraint=eastwest;" parent="U6dDKni8suYvyQFleUj0-116" vertex="1">
          <mxGeometry y="20" width="130" height="8" as="geometry" />
        </mxCell>
        <mxCell id="U6dDKni8suYvyQFleUj0-120" value="." style="html=1;align=center;spacingLeft=4;verticalAlign=top;strokeColor=none;fillColor=none;" parent="U6dDKni8suYvyQFleUj0-116" vertex="1">
          <mxGeometry y="28" width="130" height="25" as="geometry" />
        </mxCell>
        <mxCell id="ZF2SV-dX9co3BcRf8AXg-0" value="Title" parent="U6dDKni8suYvyQFleUj0-0" visible="0" />
        <mxCell id="U6dDKni8suYvyQFleUj0-2" value="&lt;font style=&quot;font-size: 12px&quot;&gt;Diagram: Base System Logical Module - Functionality Groups - High Level&lt;/font&gt;" style="text;strokeColor=none;fillColor=none;html=1;fontSize=12;fontStyle=2;verticalAlign=middle;align=left;shadow=0;glass=0;comic=0;opacity=30;fontColor=#808080;strokeWidth=1;" parent="ZF2SV-dX9co3BcRf8AXg-0" vertex="1">
          <mxGeometry x="120" y="660" width="520" height="20" as="geometry" />
        </mxCell>
        <mxCell id="ZF2SV-dX9co3BcRf8AXg-1" value="Information" parent="U6dDKni8suYvyQFleUj0-0" visible="0" />
        <UserObject label="" tooltip="ABOUT&#xa;&#xa;The Base Module provides Functionality that is pretty much common across all mature applications, from Diagnostics, through information about the system (who paid for it/who built it, who is supplying it/the reseller, the system name), through to the current Tenancy and User, its Media and what people think of it. &#xa;&#xa;&#xa;&#xa;Secondary Modules build on top of the Core module, adding Business Domain Specific functionality (described later)." id="U6dDKni8suYvyQFleUj0-3">
          <mxCell style="shape=image;html=1;verticalAlign=top;verticalLabelPosition=bottom;labelBackgroundColor=#ffffff;imageAspect=0;aspect=fixed;image=https://cdn1.iconfinder.com/data/icons/hawcons/32/699014-icon-28-information-128.png;shadow=0;dashed=0;fontFamily=Helvetica;fontSize=12;fontColor=#000000;align=center;strokeColor=#000000;fillColor=#505050;dashPattern=1 1;" parent="ZF2SV-dX9co3BcRf8AXg-1" vertex="1">
            <mxGeometry x="660" y="660" width="20" height="20" as="geometry" />
          </mxCell>
        </UserObject>
      </root>
    </mxGraphModel>
  </diagram>
</mxfile>
